<?xml version="1.0" encoding="utf-8"?>
<svg viewBox="0 0 654 132" xmlns="http://www.w3.org/2000/svg">
  <style>.st0{fill:#fff}</style>
  <path class="st0" d="M 120.55 1.4 L 11.85 1.4 C 6.35 1.4 1.85 5.9 1.85 11.4 L 1.85 120.6 C 1.85 126.1 6.35 130.6 11.85 130.6 L 120.55 130.6 C 126.05 130.6 130.55 126.1 130.55 120.6 L 130.55 11.5 C 130.65 5.9 126.15 1.4 120.55 1.4 Z M 13.25 64.2 L 68.85 8.6 L 95.45 35.3 L 39.85 90.9 L 13.25 64.2 Z M 116.85 74.3 C 115.55 78.7 113.15 82.8 109.45 86.5 L 72.45 123.5 L 45.45 96.5 L 101.05 40.9 L 108.45 48.3 C 112.35 52.2 115.05 56.4 116.55 61 C 117.95 65.4 118.05 69.9 116.85 74.3 Z M 489.25 35.2 L 511.45 35.2 L 511.45 44.8 L 489.25 44.8 Z M 234.35 67.3 C 234.35 61.5 237.15 56.7 242.95 53 C 248.65 49.2 256.35 47.4 266.05 47.4 C 277.15 47.4 285.55 49.6 291.25 54 C 295.85 57.6 298.05 61.9 298.05 67.1 C 298.05 72.9 295.25 77.7 289.55 81.5 C 283.85 85.2 276.05 87.1 266.05 87.1 C 257.15 87.1 249.95 85.5 244.45 82.4 C 237.65 78.5 234.35 73.5 234.35 67.3 M 255.65 67.2 C 255.65 70.6 256.65 73.1 258.65 74.7 C 260.65 76.3 263.15 77.1 266.15 77.1 C 269.25 77.1 271.75 76.3 273.65 74.7 C 275.65 73.1 276.55 70.5 276.55 67 C 276.55 63.7 275.55 61.3 273.55 59.7 C 271.55 58.1 269.15 57.3 266.25 57.3 C 263.15 57.3 260.65 58.1 258.55 59.8 C 256.65 61.4 255.65 63.8 255.65 67.2 Z M 521.45 67.3 C 521.45 61.5 524.35 56.7 530.05 53 C 535.75 49.2 543.45 47.4 553.15 47.4 C 564.25 47.4 572.65 49.6 578.35 54 C 582.95 57.6 585.15 61.9 585.15 67.1 C 585.15 72.9 582.35 77.7 576.65 81.5 C 570.95 85.2 563.15 87.1 553.15 87.1 C 544.25 87.1 537.05 85.5 531.55 82.4 C 524.85 78.5 521.45 73.5 521.45 67.3 M 542.75 67.2 C 542.75 70.6 543.75 73.1 545.75 74.7 C 547.75 76.3 550.25 77.1 553.25 77.1 C 556.35 77.1 558.85 76.3 560.75 74.7 C 562.75 73.1 563.65 70.5 563.65 67 C 563.65 63.7 562.65 61.3 560.65 59.7 C 558.65 58.1 556.25 57.3 553.35 57.3 C 550.25 57.3 547.75 58.1 545.65 59.8 C 543.75 61.4 542.75 63.8 542.75 67.2 Z M 390.25 60.3 L 370.65 58.9 C 371.35 56.5 372.45 54.6 373.85 53.2 C 375.25 51.8 377.25 50.6 379.85 49.6 C 381.75 48.9 384.35 48.3 387.55 47.9 C 390.85 47.5 394.35 47.3 398.25 47.3 C 404.35 47.3 409.35 47.5 413.05 48 C 416.75 48.5 419.85 49.5 422.35 51.1 C 424.05 52.2 425.45 53.7 426.45 55.6 C 427.45 57.6 427.95 59.4 427.95 61.2 L 427.95 87.1 L 409.35 87.1 L 409.35 81.4 C 406.65 83.2 403.85 84.6 401.25 85.3 C 397.65 86.3 393.45 86.9 388.65 86.9 C 382.25 86.9 377.45 85.9 374.15 83.8 C 370.85 81.7 369.15 79.1 369.15 76.1 C 369.15 73.2 370.35 70.9 372.75 69 C 375.15 67.1 379.55 65.8 385.95 64.9 C 393.65 63.8 398.65 63 400.85 62.6 C 403.15 62.2 405.55 61.6 408.05 60.9 C 408.05 59.1 407.55 57.9 406.45 57.2 C 405.45 56.5 403.55 56.1 400.95 56.1 C 397.55 56.1 395.05 56.5 393.35 57.2 C 392.15 57.6 391.05 58.7 390.25 60.3 M 408.05 68 C 405.25 68.7 402.25 69.3 399.25 69.9 C 395.05 70.7 392.45 71.4 391.35 72.2 C 390.25 73 389.65 73.9 389.65 74.9 C 389.65 76 390.25 77 391.35 77.7 C 392.45 78.4 394.15 78.8 396.35 78.8 C 398.65 78.8 400.75 78.4 402.75 77.6 C 404.75 76.8 406.15 75.9 406.95 74.7 C 407.75 73.6 408.15 72.1 408.15 70.3 L 408.15 68 Z M 592.65 48.1 L 612.75 48.1 L 612.75 54.4 C 615.75 51.8 618.75 50 621.85 48.8 C 624.95 47.7 628.65 47.1 633.05 47.1 C 639.05 47.1 643.65 48.3 647.05 50.8 C 650.45 53.3 652.15 57 652.15 62.2 L 652.15 86.9 L 630.45 86.9 L 630.45 65.5 C 630.45 63.1 629.85 61.3 628.55 60.3 C 627.25 59.3 625.45 58.8 623.05 58.8 C 620.45 58.8 618.35 59.5 616.75 60.9 C 615.15 62.3 614.35 64.7 614.35 68.3 L 614.35 87 L 592.75 87 L 592.75 48.1 Z M 164.95 48.1 L 185.05 48.1 L 185.05 54.4 C 188.05 51.8 191.05 50 194.15 48.8 C 197.25 47.7 200.95 47.1 205.35 47.1 C 211.35 47.1 215.95 48.3 219.35 50.8 C 222.75 53.3 224.45 57 224.45 62.2 L 224.45 86.9 L 202.75 86.9 L 202.75 65.5 C 202.75 63.1 202.15 61.3 200.85 60.3 C 199.55 59.3 197.75 58.8 195.35 58.8 C 192.75 58.8 190.65 59.5 189.05 60.9 C 187.45 62.3 186.65 64.7 186.65 68.3 L 186.65 87 L 165.05 87 L 165.05 48.1 Z M 446.55 36.8 L 467.65 36.8 L 467.65 47.6 L 478.05 47.6 L 478.05 56.1 L 467.65 56.1 L 467.65 65.3 C 467.65 70.9 477.85 71.1 477.85 71.1 L 477.85 87 L 467.55 87 C 467.55 87 446.15 88.3 446.15 67.3 L 446.15 56.2 L 437.95 56.2 L 437.95 48 L 446.35 48 L 446.35 36.8 Z M 489.35 47.4 L 511.55 47.4 L 511.55 87.1 L 489.35 87.1 Z M 301.25 47.4 L 322.75 47.4 L 333.25 71 L 343.95 47.4 L 365.15 47.4 L 346.15 87 L 320.55 87 Z"/>
</svg>